<?xml version="1.0" encoding="UTF-8" standalone="no"?>
<svg xmlns="http://www.w3.org/2000/svg" width="200" height="60" viewBox="0 0 200 60">
  <style>
    .logo-text { font-family: 'Arial', sans-serif; font-weight: bold; }
    .tagline { font-family: 'Arial', sans-serif; font-size: 12px; }
  </style>
  
  <!-- Heart Icon -->
  <path d="M36 15C31.5 15 28 18.5 27 23C26 18.5 22.5 15 18 15C13 15 9 19 9 24C9 34 27 45 27 45C27 45 45 34 45 24C45 19 41 15 36 15Z" fill="#e74c3c"/>
  
  <!-- Hands -->
  <path d="M27 36C27 36 22 31 20 28C18 25 19 23 21 25C23 27 27 31 27 31C27 31 31 27 33 25C35 23 36 25 34 28C32 31 27 36 27 36Z" fill="#3498db"/>
  
  <!-- Logo Text -->
  <text x="60" y="30" class="logo-text" fill="#2c3e50" font-size="24">Donation</text>
  <text x="60" y="50" class="logo-text" fill="#e74c3c" font-size="24">Daniel</text>
  
  <!-- Tagline -->
  <text x="63" y="58" class="tagline" fill="#7f8c8d">Ajudando quem precisa</text>
</svg>